Coordinates
version=1
nRows=26
nColumns=22
inDegrees=yes

Units are S.I. units (second, meters, Newtons, ...)
If the header above contains a line with 'inDegrees', this indicates whether rotational values are in degrees (yes) or radians (no).

endheader
time	pelvis_tilt	pelvis_list	pelvis_rotation	pelvis_tx	pelvis_ty	pelvis_tz	hip_flexion_r	hip_adduction_r	hip_rotation_r	knee_angle_r	ankle_angle_r	subtalar_angle_r	hip_flexion_l	hip_adduction_l	hip_rotation_l	knee_angle_l	ankle_angle_l	subtalar_angle_l	lumbar_extension	lumbar_bending	lumbar_rotation
      3.90000000	     -0.69272118	      3.87394174	    146.83219354	      0.39378783	      0.99879155	     -0.58776332	     16.10865346	     -2.29304254	     -1.99084234	    -62.17316755	      4.73875693	      6.59031143	      8.70152882	      5.43538832	     -8.97159191	    -23.18582526	     14.28575406	    -12.15413373	    -14.75228373	      1.03672120	      1.55166307
      3.91000000	     -0.73999199	      3.77509490	    147.67621259	      0.38798344	      0.99914767	     -0.58942845	     16.99082899	     -2.39138077	     -1.35170734	    -61.33197276	      5.15489075	      6.31127808	      8.09389590	      5.71449471	     -8.27024819	    -22.70215905	     14.35973011	    -12.09202993	    -14.72728301	      1.04819022	      1.14694346
      3.92000000	     -0.76971027	      3.68008646	    148.52496438	      0.38216813	      0.99949587	     -0.59105298	     17.81884252	     -2.47270343	     -0.72429287	    -60.28832318	      5.55942991	      5.86852701	      7.48106797	      5.96826841	     -7.55096310	    -22.19325823	     14.38447941	    -12.04947819	    -14.68831142	      1.07443640	      0.76771071
      3.93000000	     -0.79225461	      3.56861702	    149.35896173	      0.37637889	      0.99979062	     -0.59266172	     18.61057668	     -2.55659629	     -0.07824002	    -59.08350101	      6.04155550	      5.53457100	      6.87625491	      6.21666067	     -6.83966818	    -21.67690983	     14.42318707	    -12.00813749	    -14.63951946	      1.08116340	      0.41481905
      3.94000000	     -0.80379109	      3.44815402	    150.17512545	      0.37063637	      1.00001759	     -0.59424907	     19.36854643	     -2.62771320	      0.59269346	    -57.73359923	      6.56836330	      5.23419221	      6.29666985	      6.45104257	     -6.13421048	    -21.18631899	     14.48098298	    -11.96615593	    -14.58778985	      1.07885805	      0.08979349
      3.95000000	     -0.81127746	      3.34974104	    150.99470762	      0.36487053	      1.00025732	     -0.59581367	     20.05387371	     -2.68141269	      1.21575988	    -56.22198913	      6.96285131	      4.69124631	      5.69329543	      6.65343523	     -5.39491503	    -20.67682748	     14.49433590	    -11.94393168	    -14.54922223	      1.09721986	     -0.20840755
      3.96000000	     -0.79724952	      3.22511227	    151.78651376	      0.35915477	      1.00037171	     -0.59739265	     20.73596642	     -2.73024083	      1.86628675	    -54.61072917	      7.42661688	      4.36488723	      5.14421727	      6.84960812	     -4.69050830	    -20.21312009	     14.55520904	    -11.89061181	    -14.48625672	      1.08906694	     -0.48028859
      3.97000000	     -0.78229130	      3.13844840	    152.55847482	      0.35342168	      1.00050694	     -0.59899352	     21.33930376	     -2.73627809	      2.47777741	    -52.86234896	      7.71555423	      3.80520606	      4.56949341	      6.99668491	     -3.98791969	    -19.74866391	     14.59056928	    -11.82889810	    -14.44894931	      1.11385939	     -0.70028339
      3.98000000	     -0.74957711	      3.03522753	    153.31562564	      0.34772129	      1.00054629	     -0.60064802	     21.92702109	     -2.73555117	      3.07218626	    -51.03072522	      7.99475859	      3.38639082	      4.03477885	      7.13169737	     -3.30615362	    -19.31937676	     14.65327738	    -11.73387603	    -14.39285428	      1.11118453	     -0.90544806
      3.99000000	     -0.69379180	      2.91939653	    154.05957190	      0.34201439	      1.00048677	     -0.60232393	     22.50203895	     -2.72552998	      3.64361252	    -49.12807792	      8.22457698	      3.11818368	      3.54007779	      7.25532372	     -2.63482914	    -18.92073575	     14.73690208	    -11.62953483	    -14.31021155	      1.10058479	     -1.09543188
      4.00000000	     -0.63296727	      2.82459791	    154.77890710	      0.33631741	      1.00040515	     -0.60407674	     23.02431028	     -2.67267824	      4.18628334	    -47.14554866	      8.34015899	      2.82567557	      3.04619760	      7.34029208	     -1.98651671	    -18.54130188	     14.82461161	    -11.50800699	    -14.23952336	      1.09535753	     -1.24803006
      4.01000000	     -0.56374454	      2.73400105	    155.47260535	      0.33061489	      1.00026483	     -0.60590499	     23.51157810	     -2.58889674	      4.71142523	    -45.10811520	      8.38418476	      2.60349115	      2.56865650	      7.40203549	     -1.37222019	    -18.18786770	     14.92529645	    -11.38589626	    -14.16486326	      1.08226687	     -1.36556746
      4.02000000	     -0.48738617	      2.64692444	    156.14844170	      0.32489677	      1.00006307	     -0.60779513	     23.96465079	     -2.47740897	      5.21062340	    -43.03120435	      8.36528545	      2.48572541	      2.10502674	      7.44476575	     -0.77524454	    -17.85699694	     15.03649566	    -11.27153898	    -14.08662898	      1.06181649	     -1.46263504
      4.03000000	     -0.41157906	      2.56653519	    156.81177704	      0.31914214	      0.99980842	     -0.60972796	     24.37450685	     -2.34403078	      5.66808505	    -40.92294815	      8.29206542	      2.48238555	      1.64540982	      7.47107991	     -0.18823053	    -17.54817380	     15.15979306	    -11.16592142	    -14.01354383	      1.03850893	     -1.54870204
      4.04000000	     -0.33665753	      2.49752644	    157.46883424	      0.31333648	      0.99950307	     -0.61170558	     24.74030460	     -2.18621543	      6.07188542	    -38.79666704	      8.16179101	      2.60610689	      1.18191041	      7.47549259	      0.39509600	    -17.25141271	     15.29993674	    -11.06858682	    -13.94572789	      1.01688812	     -1.63330159
      4.05000000	     -0.29801526	      2.45231351	    158.10478994	      0.30747485	      0.99920512	     -0.61375260	     25.01933823	     -1.99873404	      6.43375242	    -36.65218481	      8.03691431	      2.90937189	      0.66845123	      7.45951070	      0.96045066	    -16.95659631	     15.45360626	    -10.96289290	    -13.92821335	      0.99249659	     -1.69662826
      4.06000000	     -0.25153081	      2.41114354	    158.72739434	      0.30156456	      0.99882820	     -0.61584418	     25.27526327	     -1.78919267	      6.73098424	    -34.51130273	      7.84081175	      3.33627164	      0.16637733	      7.42423270	      1.50448139	    -16.67812146	     15.63220722	    -10.86654528	    -13.90241779	      0.96876707	     -1.76000658
      4.07000000	     -0.22274172	      2.38495124	    159.32543734	      0.29561096	      0.99841905	     -0.61800049	     25.47580793	     -1.55001757	      6.97516081	    -32.37710073	      7.60743780	      3.90550785	     -0.35843644	      7.36859308	      2.01746821	    -16.40562726	     15.83020679	    -10.76399578	    -13.90449530	      0.94354310	     -1.80355804
      4.08000000	     -0.21210927	      2.37525772	    159.89990023	      0.28962549	      0.99797619	     -0.62021467	     25.62052666	     -1.27987747	      7.16690669	    -30.25596371	      7.32475231	      4.61684740	     -0.89839313	      7.29146887	      2.49354554	    -16.15526663	     16.04843589	    -10.65449194	    -13.93708805	      0.92034239	     -1.82852327
      4.09000000	     -0.22598032	      2.37414871	    160.43255937	      0.28358833	      0.99750745	     -0.62253660	     25.70916153	     -0.97920914	      7.33151064	    -28.16634590	      7.00750600	      5.52587998	     -1.47145610	      7.20212555	      2.90967670	    -15.90016162	     16.27834502	    -10.53475061	    -13.99845940	      0.88186328	     -1.82209615
      4.10000000	     -0.25894445	      2.38323447	    160.93758480	      0.27750696	      0.99700609	     -0.62492507	     25.74248753	     -0.65080805	      7.48518727	    -26.11379035	      6.65476546	      6.64388246	     -2.06445038	      7.09919530	      3.27709718	    -15.65461313	     16.51944503	    -10.40938648	    -14.08701019	      0.84079438	     -1.79802342
      4.11000000	     -0.30806279	      2.39826902	    161.41890638	      0.27136936	      0.99646205	     -0.62738459	     25.72144250	     -0.30221433	      7.64314051	    -24.10787234	      6.28658891	      7.95896595	     -2.66603156	      6.98733142	      3.60091206	    -15.43610176	     16.76736900	    -10.28592709	    -14.19472305	      0.79215146	     -1.75756724
      4.12000000	     -0.37274397	      2.41196533	    161.88497713	      0.26513434	      0.99587052	     -0.62989832	     25.64811800	      0.05102063	      7.82923096	    -22.17012714	      5.93376811	      9.46763057	     -3.27868112	      6.87501112	      3.88514016	    -15.23715948	     17.01662362	    -10.16701784	    -14.31340013	      0.73338092	     -1.71249108
      4.13000000	     -0.44971979	      2.42236180	    162.34066263	      0.25878807	      0.99522353	     -0.63244936	     25.53002456	      0.39905558	      8.05065122	    -20.32666845	      5.62463490	     11.08784914	     -3.89181334	      6.76603664	      4.14675189	    -15.07367950	     17.26463115	    -10.05667617	    -14.43593181	      0.66632584	     -1.66820295
      4.14000000	     -0.53264058	      2.42493039	    162.79513757	      0.25230264	      0.99451099	     -0.63501685	     25.38425290	      0.73047133	      8.30775300	    -18.61960621	      5.38954754	     12.68795540	     -4.49622225	      6.66334948	      4.39524667	    -14.94952207	     17.51045677	     -9.95590436	    -14.54930504	      0.59235428	     -1.63153795
      4.15000000	     -0.61874399	      2.42875917	    163.24862598	      0.24566682	      0.99374197	     -0.63758550	     25.22297564	      1.05061238	      8.56800268	    -17.09221969	      5.23009424	     14.08766083	     -5.08661795	      6.55865659	      4.63828572	    -14.87526297	     17.75772381	     -9.86407068	    -14.65287367	      0.52647983	     -1.60577470
